<svg width="168" height="30" viewBox="0 0 168 30" fill="none" xmlns="http://www.w3.org/2000/svg">
    <defs>
        <radialGradient id="paint0_radial_1_3481" cx="0" cy="0" r="1" gradientUnits="userSpaceOnUse" gradientTransform="translate(88.4999 14.9998) scale(14.9075 15.0942)">
            <stop offset="2.23767e-07" stop-color="#CFCFFA" />
            <stop offset="1" stop-color="#767FF7" />
        </radialGradient>
        <clipPath id="clip0_1_3481">
            <rect width="30" height="30" fill="white" transform="translate(73.5)" />
        </clipPath>
    </defs>
    <g opacity="0.75">
        <g clip-path="url(#clip0_1_3481)">
            <path d="M74.0884 21.0175L74.0877 21.0221C73.7526 23.0961 74.4087 24.6245 75.5907 25.7883C76.7959 26.9751 78.5664 27.7969 80.4545 28.358C84.2257 29.4788 88.2532 29.4997 88.4934 29.4997H88.4935H88.4935H88.4936H88.4936H88.4937H88.4937H88.4938H88.4938H88.4939H88.4939H88.494H88.494H88.4941H88.4941H88.4942H88.4942H88.4943H88.4943H88.4944H88.4944H88.4945H88.4945H88.4946H88.4946H88.4947H88.4947H88.4947H88.4948H88.4948H88.4949H88.4949H88.495H88.495H88.4951H88.4951H88.4952H88.4952H88.4953H88.4953H88.4954H88.4954H88.4954H88.4955H88.4955H88.4956H88.4956H88.4957H88.4957H88.4958H88.4958H88.4958H88.4959H88.4959H88.496H88.496H88.4961H88.4961H88.4962H88.4962H88.4962H88.4963H88.4963H88.4964H88.4964H88.4965H88.4965H88.4965H88.4966H88.4966H88.4967H88.4967H88.4968H88.4968H88.4968H88.4969H88.4969H88.497H88.497H88.4971H88.4971H88.4971H88.4972H88.4972H88.4973H88.4973H88.4973H88.4974H88.4974H88.4975H88.4975H88.4975H88.4976H88.4976H88.4977H88.4977H88.4977H88.4978H88.4978H88.4979H88.4979H88.4979H88.498H88.498H88.4981H88.4981H88.4981H88.4982H88.4982H88.4983H88.4983H88.4983H88.4984H88.4984H88.4984H88.4985H88.4985H88.4986H88.4986H88.4986H88.4987H88.4987H88.4987H88.4988H88.4988H88.4989H88.4989H88.4989H88.499H88.499H88.499H88.4991H88.4991H88.4991H88.4992H88.4992H88.4993H88.4993H88.4993H88.4994H88.4994H88.4994H88.4995H88.4995H88.4995H88.4996H88.4996H88.4996H88.4997H88.4997H88.4997H88.4998H88.4998H88.4998H88.4999H88.4999H88.4999H88.5H88.5H88.5001H88.5001H88.5001H88.5001H88.5002H88.5002H88.5002H88.5003H88.5003H88.5003H88.5004H88.5004H88.5004H88.5005H88.5005H88.5005H88.5006H88.5006H88.5006H88.5007H88.5007H88.5007H88.5008H88.5008H88.5008H88.5009H88.5009H88.5009H88.5009H88.501H88.501H88.501H88.5011H88.5011H88.5011H88.5012H88.5012H88.5012H88.5012H88.5013H88.5013H88.5013H88.5014H88.5014H88.5014H88.5014H88.5015H88.5015H88.5015H88.5016H88.5016H88.5016H88.5016H88.5017H88.5017H88.5017H88.5018H88.5018H88.5018H88.5018H88.5019H88.5019H88.5019H88.5019H88.502H88.502H88.502H88.5021H88.5021H88.5021H88.5021H88.5022H88.5022H88.5022H88.5022H88.5023H88.5023H88.5023H88.5023H88.5024H88.5024H88.5024H88.5024H88.5025H88.5025H88.5025H88.5025H88.5026H88.5026H88.5026H88.5026H88.5027H88.5027H88.5027H88.5027H88.5028H88.5028H88.5028H88.5028H88.5029H88.5029H88.5029H88.5029H88.5029H88.503H88.503H88.503H88.503H88.5031H88.5031H88.5031H88.5031H88.5032H88.5032H88.5032H88.5032H88.5032H88.5033H88.5033H88.5033H88.5033H88.5033H88.5034H88.5034H88.5034H88.5034H88.5035H88.5035H88.5035H88.5035H88.5035H88.5036H88.5036H88.5036H88.5036H88.5036H88.5037H88.5037H88.5037H88.5037H88.5037H88.5038H88.5038H88.5038H88.5038H88.5038H88.5038H88.5039H88.5039H88.5039H88.5039H88.5039H88.504H88.504H88.504H88.504H88.504H88.5041H88.5041H88.5041H88.5041H88.5041H88.5041H88.5042H88.5042H88.5042H88.5042H88.5042H88.5042H88.5043H88.5043H88.5043H88.5043H88.5043H88.5043H88.5044H88.5044H88.5044H88.5044H88.5044H88.5044H88.5045H88.5045H88.5045H88.5045H88.5045H88.5045H88.5045H88.5046H88.5046H88.5046H88.5046H88.5046H88.5046H88.5046H88.5047H88.5047H88.5047H88.5047H88.5048H88.5048H88.5048H88.5048H88.5049H88.5049H88.5049H88.5049H88.505H88.505H88.505H88.505H88.5051H88.5051H88.5051H88.5051H88.5051H88.5052H88.5052H88.5052H88.5052H88.5052H88.5053H88.5053H88.5053H88.5053H88.5053H88.5054H88.5054H88.5054H88.5054H88.5054H88.5054H88.5055H88.5055H88.5055H88.5055H88.5055H88.5055H88.5056H88.5056H88.5056H88.5056H88.5056H88.5056H88.5057H88.5057H88.5057H88.5057H88.5057H88.5057H88.5058H88.5058C88.752 29.4997 92.937 29.4778 96.7706 28.2897C98.6902 27.6947 100.462 26.8248 101.619 25.5716C102.75 24.3466 103.324 22.7251 102.811 20.5045C102.803 20.4707 102.796 20.4399 102.789 20.4106C102.778 20.3615 102.768 20.3163 102.756 20.2676L102.752 20.2549L102.753 20.2549C102.745 20.2203 102.738 20.1911 102.73 20.1569C102.724 20.1349 102.718 20.1108 102.712 20.082C102.682 19.9582 102.652 19.8341 102.622 19.7084L102.621 19.7068L102.613 19.6737C102.557 19.4462 102.501 19.2198 102.443 18.9948L102.442 18.9934C101.886 16.8133 101.209 14.6711 100.334 12.6183L100.333 12.618C99.5689 10.8227 98.6026 9.20295 97.4713 7.59623C95.8035 5.22882 93.8894 2.72742 91.4881 1.28446L91.4879 1.2843C90.5852 0.741092 89.5446 0.420218 88.5482 0.516625L88.5001 0.521284L88.4519 0.516625C87.4554 0.420211 86.414 0.741137 85.5113 1.2843L85.5111 1.28446C83.1098 2.72742 81.1957 5.22882 79.5279 7.59623C78.3967 9.20286 77.4303 10.8226 76.6648 12.618L74.0884 21.0175ZM74.0884 21.0175C74.0971 20.9602 74.1067 20.9024 74.1173 20.8432M74.0884 21.0175L74.1173 20.8432M74.1173 20.8432C74.1374 20.7335 74.1613 20.6206 74.1883 20.5039C74.242 20.2732 74.2967 20.0432 74.3524 19.8118C74.3884 19.6638 74.424 19.5179 74.4604 19.3733L74.4606 19.3726C74.4948 19.2361 74.5286 19.1009 74.5633 18.9649C74.5962 18.8366 74.6284 18.7107 74.6615 18.5861L74.6623 18.5836C74.6641 18.5773 74.6663 18.5694 74.6685 18.5603C74.731 18.3224 74.7951 18.0855 74.8618 17.8501L74.8619 17.8501L74.8645 17.8402C74.8733 17.8065 74.8802 17.7804 74.8875 17.7552L74.8875 17.7552L74.8888 17.7505C75.3787 15.9998 75.9574 14.2798 76.6647 12.6182L74.1173 20.8432ZM102.612 19.6662L102.612 19.6665L102.612 19.6662Z" fill="url(#paint0_radial_1_3481)" stroke="white" />
            <circle cx="92.5001" cy="8.00006" r="1.5" fill="#D7D9FF" stroke="white" />
            <path d="M74.0881 21.0175L74.0874 21.0222C73.7524 23.0961 74.4085 24.6246 75.5904 25.7884C76.7957 26.9752 78.5662 27.7969 80.4542 28.3581C84.2255 29.4788 88.2529 29.4998 88.4932 29.4998H88.4932H88.4933H88.4933H88.4934H88.4934H88.4935H88.4935H88.4936H88.4936H88.4937H88.4937H88.4938H88.4938H88.4939H88.4939H88.494H88.494H88.4941H88.4941H88.4942H88.4942H88.4943H88.4943H88.4944H88.4944H88.4945H88.4945H88.4946H88.4946H88.4946H88.4947H88.4947H88.4948H88.4948H88.4949H88.4949H88.495H88.495H88.4951H88.4951H88.4952H88.4952H88.4952H88.4953H88.4953H88.4954H88.4954H88.4955H88.4955H88.4956H88.4956H88.4957H88.4957H88.4957H88.4958H88.4958H88.4959H88.4959H88.496H88.496H88.496H88.4961H88.4961H88.4962H88.4962H88.4963H88.4963H88.4963H88.4964H88.4964H88.4965H88.4965H88.4966H88.4966H88.4966H88.4967H88.4967H88.4968H88.4968H88.4969H88.4969H88.4969H88.497H88.497H88.4971H88.4971H88.4971H88.4972H88.4972H88.4973H88.4973H88.4973H88.4974H88.4974H88.4975H88.4975H88.4975H88.4976H88.4976H88.4977H88.4977H88.4977H88.4978H88.4978H88.4979H88.4979H88.4979H88.498H88.498H88.4981H88.4981H88.4981H88.4982H88.4982H88.4982H88.4983H88.4983H88.4984H88.4984H88.4984H88.4985H88.4985H88.4985H88.4986H88.4986H88.4987H88.4987H88.4987H88.4988H88.4988H88.4988H88.4989H88.4989H88.4989H88.499H88.499H88.499H88.4991H88.4991H88.4992H88.4992H88.4992H88.4993H88.4993H88.4993H88.4994H88.4994H88.4994H88.4995H88.4995H88.4995H88.4996H88.4996H88.4996H88.4997H88.4997H88.4997H88.4998H88.4998H88.4998H88.4999H88.4999H88.4999H88.5H88.5H88.5H88.5001H88.5001H88.5001H88.5002H88.5002H88.5002H88.5003H88.5003H88.5003H88.5004H88.5004H88.5004H88.5005H88.5005H88.5005H88.5005H88.5006H88.5006H88.5006H88.5007H88.5007H88.5007H88.5008H88.5008H88.5008H88.5009H88.5009H88.5009H88.5009H88.501H88.501H88.501H88.5011H88.5011H88.5011H88.5011H88.5012H88.5012H88.5012H88.5013H88.5013H88.5013H88.5013H88.5014H88.5014H88.5014H88.5015H88.5015H88.5015H88.5015H88.5016H88.5016H88.5016H88.5017H88.5017H88.5017H88.5017H88.5018H88.5018H88.5018H88.5018H88.5019H88.5019H88.5019H88.5019H88.502H88.502H88.502H88.502H88.5021H88.5021H88.5021H88.5021H88.5022H88.5022H88.5022H88.5022H88.5023H88.5023H88.5023H88.5023H88.5024H88.5024H88.5024H88.5024H88.5025H88.5025H88.5025H88.5025H88.5026H88.5026H88.5026H88.5026H88.5027H88.5027H88.5027H88.5027H88.5028H88.5028H88.5028H88.5028H88.5028H88.5029H88.5029H88.5029H88.5029H88.503H88.503H88.503H88.503H88.503H88.5031H88.5031H88.5031H88.5031H88.5031H88.5032H88.5032H88.5032H88.5032H88.5033H88.5033H88.5033H88.5033H88.5033H88.5034H88.5034H88.5034H88.5034H88.5034H88.5035H88.5035H88.5035H88.5035H88.5035H88.5035H88.5036H88.5036H88.5036H88.5036H88.5036H88.5037H88.5037H88.5037H88.5037H88.5037H88.5038H88.5038H88.5038H88.5038H88.5038H88.5038H88.5039H88.5039H88.5039H88.5039H88.5039H88.5039H88.504H88.504H88.504H88.504H88.504H88.504H88.5041H88.5041H88.5041H88.5041H88.5041H88.5041H88.5042H88.5042H88.5042H88.5042H88.5042H88.5042H88.5043H88.5043H88.5043H88.5043H88.5044H88.5044H88.5044H88.5044H88.5045H88.5045H88.5045H88.5046H88.5046H88.5046H88.5046H88.5047H88.5047H88.5047H88.5047H88.5048H88.5048H88.5048H88.5048H88.5048H88.5049H88.5049H88.5049H88.5049H88.505H88.505H88.505H88.505H88.505H88.5051H88.5051H88.5051H88.5051H88.5051H88.5051H88.5052H88.5052H88.5052H88.5052H88.5052H88.5052H88.5053H88.5053H88.5053H88.5053H88.5053H88.5054H88.5054H88.5054H88.5054H88.5054H88.5054H88.5054H88.5055H88.5055H88.5055H88.5055H88.5055C88.7518 29.4998 92.9368 29.4779 96.7703 28.2897C98.6899 27.6948 100.462 26.8248 101.619 25.5716C102.75 24.3467 103.323 22.7251 102.811 20.5045C102.803 20.4707 102.796 20.4399 102.789 20.4106C102.778 20.3615 102.767 20.3163 102.755 20.2676L102.752 20.255L102.752 20.2549C102.745 20.2204 102.738 20.1911 102.729 20.157C102.724 20.135 102.718 20.1109 102.711 20.082C102.682 19.9582 102.652 19.8342 102.621 19.7084L102.621 19.7069L102.613 19.6738C102.566 19.4813 102.518 19.2895 102.469 19.0987C102.29 18.8778 102.095 18.6525 101.884 18.4218C96.6382 12.6871 93.4859 10.3686 91.6714 9.4825L74.0881 21.0175ZM74.0881 21.0175C74.0968 20.9602 74.1065 20.9025 74.1171 20.8433M74.0881 21.0175L74.1171 20.8433M74.1171 20.8433C74.1372 20.7335 74.1611 20.6205 74.1881 20.5038C74.2418 20.2731 74.2964 20.0432 74.3521 19.8119C74.3882 19.6639 74.4237 19.518 74.4602 19.3733L74.4603 19.3727C74.4945 19.2361 74.5284 19.1008 74.5632 18.9647C74.596 18.8365 74.6282 18.7107 74.6612 18.5861L74.662 18.5836C74.6639 18.5773 74.666 18.5695 74.6683 18.5603C74.7166 18.3764 74.7659 18.1931 74.8166 18.0105C75.6541 17.3751 76.5682 16.6208 77.3438 15.8348C78.1174 15.0507 78.799 14.1902 79.095 13.3505C79.4701 12.2874 79.9127 11.716 80.3298 11.4283C80.7319 11.151 81.1655 11.0991 81.6285 11.1971C82.1058 11.2982 82.6027 11.5581 83.0722 11.8905C83.5377 12.22 83.9496 12.6015 84.2553 12.914L84.2553 12.9141C84.8207 13.4919 85.7101 13.6123 86.4043 13.1814L86.4046 13.1812C87.1376 12.7255 88.1122 11.8726 89.0587 10.2933C89.6089 9.37597 90.739 9.0277 91.6712 9.48242L74.1171 20.8433ZM102.612 19.6663L102.612 19.6665L102.612 19.6663Z" fill="#8589EB" stroke="white" />
            <path opacity="0.15" d="M74.0881 21.0177L74.0874 21.0223C73.7524 23.0963 74.4085 24.6248 75.5904 25.7886C76.7957 26.9754 78.5662 27.7971 80.4542 28.3583C84.2255 29.479 88.2529 29.5 88.4932 29.5H88.4932H88.4933H88.4933H88.4934H88.4934H88.4935H88.4935H88.4936H88.4936H88.4937H88.4937H88.4938H88.4938H88.4939H88.4939H88.494H88.494H88.4941H88.4941H88.4942H88.4942H88.4943H88.4943H88.4944H88.4944H88.4945H88.4945H88.4946H88.4946H88.4946H88.4947H88.4947H88.4948H88.4948H88.4949H88.4949H88.495H88.495H88.4951H88.4951H88.4952H88.4952H88.4952H88.4953H88.4953H88.4954H88.4954H88.4955H88.4955H88.4956H88.4956H88.4957H88.4957H88.4957H88.4958H88.4958H88.4959H88.4959H88.496H88.496H88.496H88.4961H88.4961H88.4962H88.4962H88.4963H88.4963H88.4963H88.4964H88.4964H88.4965H88.4965H88.4966H88.4966H88.4966H88.4967H88.4967H88.4968H88.4968H88.4969H88.4969H88.4969H88.497H88.497H88.4971H88.4971H88.4971H88.4972H88.4972H88.4973H88.4973H88.4973H88.4974H88.4974H88.4975H88.4975H88.4975H88.4976H88.4976H88.4977H88.4977H88.4977H88.4978H88.4978H88.4979H88.4979H88.4979H88.498H88.498H88.4981H88.4981H88.4981H88.4982H88.4982H88.4982H88.4983H88.4983H88.4984H88.4984H88.4984H88.4985H88.4985H88.4985H88.4986H88.4986H88.4987H88.4987H88.4987H88.4988H88.4988H88.4988H88.4989H88.4989H88.4989H88.499H88.499H88.499H88.4991H88.4991H88.4992H88.4992H88.4992H88.4993H88.4993H88.4993H88.4994H88.4994H88.4994H88.4995H88.4995H88.4995H88.4996H88.4996H88.4996H88.4997H88.4997H88.4997H88.4998H88.4998H88.4998H88.4999H88.4999H88.4999H88.5H88.5H88.5H88.5001H88.5001H88.5001H88.5002H88.5002H88.5002H88.5003H88.5003H88.5003H88.5004H88.5004H88.5004H88.5005H88.5005H88.5005H88.5005H88.5006H88.5006H88.5006H88.5007H88.5007H88.5007H88.5008H88.5008H88.5008H88.5009H88.5009H88.5009H88.5009H88.501H88.501H88.501H88.5011H88.5011H88.5011H88.5011H88.5012H88.5012H88.5012H88.5013H88.5013H88.5013H88.5013H88.5014H88.5014H88.5014H88.5015H88.5015H88.5015H88.5015H88.5016H88.5016H88.5016H88.5017H88.5017H88.5017H88.5017H88.5018H88.5018H88.5018H88.5018H88.5019H88.5019H88.5019H88.5019H88.502H88.502H88.502H88.502H88.5021H88.5021H88.5021H88.5021H88.5022H88.5022H88.5022H88.5022H88.5023H88.5023H88.5023H88.5023H88.5024H88.5024H88.5024H88.5024H88.5025H88.5025H88.5025H88.5025H88.5026H88.5026H88.5026H88.5026H88.5027H88.5027H88.5027H88.5027H88.5028H88.5028H88.5028H88.5028H88.5028H88.5029H88.5029H88.5029H88.5029H88.503H88.503H88.503H88.503H88.503H88.5031H88.5031H88.5031H88.5031H88.5031H88.5032H88.5032H88.5032H88.5032H88.5033H88.5033H88.5033H88.5033H88.5033H88.5034H88.5034H88.5034H88.5034H88.5034H88.5035H88.5035H88.5035H88.5035H88.5035H88.5035H88.5036H88.5036H88.5036H88.5036H88.5036H88.5037H88.5037H88.5037H88.5037H88.5037H88.5038H88.5038H88.5038H88.5038H88.5038H88.5038H88.5039H88.5039H88.5039H88.5039H88.5039H88.5039H88.504H88.504H88.504H88.504H88.504H88.504H88.5041H88.5041H88.5041H88.5041H88.5041H88.5041H88.5042H88.5042H88.5042H88.5042H88.5042H88.5042H88.5043H88.5043H88.5043H88.5043H88.5043H88.5043H88.5043H88.5044H88.5044H88.5044H88.5044H88.5044H88.5044H88.5044H88.5045H88.5045H88.5045H88.5045H88.5045H88.5045H88.5045H88.5046H88.5046H88.5046H88.5046H88.5046H88.5046H88.5046H88.5046H88.5047H88.5047H88.5047H88.5047H88.5047H88.5047H88.5047H88.5047H88.5048H88.5048H88.5048H88.5048H88.5048H88.5048H88.5048H88.5048H88.5048H88.5049H88.5049H88.5049H88.5049H88.5049H88.5049H88.5049H88.5049H88.5049H88.505H88.505H88.505H88.505H88.505H88.505H88.505H88.505H88.505H88.505H88.5051H88.5051H88.5051H88.5051H88.5051H88.5051H88.5051H88.5051H88.5051H88.5051H88.5051H88.5051H88.5052H88.5052H88.5052H88.5052H88.5052H88.5052H88.5052H88.5052H88.5052H88.5052H88.5052H88.5052H88.5053H88.5053H88.5053H88.5053H88.5053H88.5053H88.5053H88.5054H88.5054H88.5054H88.5054H88.5054H88.5054H88.5054H88.5054H88.5054H88.5054H88.5054H88.5055H88.5055H88.5055H88.5055H88.5055H88.5055H88.5055H88.5055H88.5055H88.5055C88.7518 29.5 92.9368 29.4781 96.7703 28.2899C98.6899 27.695 100.462 26.825 101.619 25.5718C102.632 24.4747 103.197 23.0595 102.936 21.1807C102.853 21.2347 102.769 21.2865 102.685 21.3362C102.627 21.3702 102.569 21.4026 102.512 21.4334C102.512 21.4336 102.512 21.4338 102.511 21.434L102.273 20.9945C102.028 21.129 101.774 21.2453 101.514 21.3491C101.241 21.4576 100.961 21.5509 100.677 21.6335L74.0881 21.0177ZM74.0881 21.0177C74.0968 20.9605 74.1065 20.9027 74.1171 20.8435M74.0881 21.0177L74.1171 20.8435M74.1171 20.8435C74.1372 20.7338 74.1611 20.6208 74.1881 20.5041C74.2417 20.2734 74.2964 20.0434 74.3521 19.8121C74.3616 19.7732 74.371 19.7345 74.3805 19.6958C74.907 19.6514 75.403 19.8002 75.8041 20.3227L75.8041 20.3227L75.8057 20.3248C75.8691 20.4065 75.9357 20.4914 76.0055 20.5755L74.1171 20.8435ZM78.2793 22.2109C78.9816 22.4196 79.7622 22.4168 80.6281 22.1488L77.2088 21.6982C77.5338 21.9179 77.8891 22.0956 78.2793 22.2109ZM76.0056 20.5757C76.3572 21 76.7539 21.3911 77.2086 21.698L76.0056 20.5757Z" fill="white" stroke="white" />
            <path opacity="0.15" d="M74.0881 21.0178L74.0874 21.0225C73.7524 23.0965 74.4085 24.6249 75.5904 25.7887C76.7957 26.9755 78.5662 27.7973 80.4542 28.3584C84.2255 29.4792 88.2529 29.5001 88.4932 29.5001H88.4932H88.4933H88.4933H88.4934H88.4934H88.4935H88.4935H88.4936H88.4936H88.4937H88.4937H88.4938H88.4938H88.4939H88.4939H88.494H88.494H88.4941H88.4941H88.4942H88.4942H88.4943H88.4943H88.4944H88.4944H88.4945H88.4945H88.4946H88.4946H88.4946H88.4947H88.4947H88.4948H88.4948H88.4949H88.4949H88.495H88.495H88.4951H88.4951H88.4952H88.4952H88.4952H88.4953H88.4953H88.4954H88.4954H88.4955H88.4955H88.4956H88.4956H88.4957H88.4957H88.4957H88.4958H88.4958H88.4959H88.4959H88.496H88.496H88.496H88.4961H88.4961H88.4962H88.4962H88.4963H88.4963H88.4963H88.4964H88.4964H88.4965H88.4965H88.4966H88.4966H88.4966H88.4967H88.4967H88.4968H88.4968H88.4969H88.4969H88.4969H88.497H88.497H88.4971H88.4971H88.4971H88.4972H88.4972H88.4973H88.4973H88.4973H88.4974H88.4974H88.4975H88.4975H88.4975H88.4976H88.4976H88.4977H88.4977H88.4977H88.4978H88.4978H88.4979H88.4979H88.4979H88.498H88.498H88.4981H88.4981H88.4981H88.4982H88.4982H88.4982H88.4983H88.4983H88.4984H88.4984H88.4984H88.4985H88.4985H88.4985H88.4986H88.4986H88.4987H88.4987H88.4987H88.4988H88.4988H88.4988H88.4989H88.4989H88.4989H88.499H88.499H88.499H88.4991H88.4991H88.4992H88.4992H88.4992H88.4993H88.4993H88.4993H88.4994H88.4994H88.4994H88.4995H88.4995H88.4995H88.4996H88.4996H88.4996H88.4997H88.4997H88.4997H88.4998H88.4998H88.4998H88.4999H88.4999H88.4999H88.5H88.5H88.5H88.5001H88.5001H88.5001H88.5002H88.5002H88.5002H88.5003H88.5003H88.5003H88.5004H88.5004H88.5004H88.5005H88.5005H88.5005H88.5005H88.5006H88.5006H88.5006H88.5007H88.5007H88.5007H88.5008H88.5008H88.5008H88.5009H88.5009H88.5009H88.5009H88.501H88.501H88.501H88.5011H88.5011H88.5011H88.5011H88.5012H88.5012H88.5012H88.5013H88.5013H88.5013H88.5013H88.5014H88.5014H88.5014H88.5015H88.5015H88.5015H88.5015H88.5016H88.5016H88.5016H88.5017H88.5017H88.5017H88.5017H88.5018H88.5018H88.5018H88.5018H88.5019H88.5019H88.5019H88.5019H88.502H88.502H88.502H88.502H88.5021H88.5021H88.5021H88.5021H88.5022H88.5022H88.5022H88.5022H88.5023H88.5023H88.5023H88.5023H88.5024H88.5024H88.5024H88.5024H88.5025H88.5025H88.5025H88.5025H88.5026H88.5026H88.5026H88.5026H88.5027H88.5027H88.5027H88.5027H88.5028H88.5028H88.5028H88.5028H88.5028H88.5029H88.5029H88.5029H88.5029H88.503H88.503H88.503H88.503H88.503H88.5031H88.5031H88.5031H88.5031H88.5031H88.5032H88.5032H88.5032H88.5032H88.5033H88.5033H88.5033H88.5033H88.5033H88.5034H88.5034H88.5034H88.5034H88.5034H88.5035H88.5035H88.5035H88.5035H88.5035H88.5035H88.5036H88.5036H88.5036H88.5036H88.5036H88.5037H88.5037H88.5037H88.5037H88.5037H88.5038H88.5038H88.5038H88.5038H88.5038H88.5038H88.5039H88.5039H88.5039H88.5039H88.5039H88.5039H88.504H88.504H88.504H88.504H88.504H88.504H88.5041H88.5041H88.5041H88.5041H88.5041H88.5041H88.5042H88.5042H88.5042H88.5042H88.5042H88.5042H88.5043H88.5043H88.5043H88.5043H88.5043H88.5043H88.5043H88.5044H88.5044H88.5044H88.5044H88.5044H88.5044H88.5044H88.5045H88.5045H88.5045H88.5045H88.5045H88.5045H88.5045H88.5046H88.5046H88.5046H88.5046H88.5046H88.5046H88.5046H88.5046H88.5047H88.5047H88.5047H88.5047H88.5047H88.5047H88.5047H88.5047H88.5048H88.5048H88.5048H88.5048H88.5048H88.5048H88.5048H88.5048H88.5048H88.5049H88.5049H88.5049H88.5049H88.5049H88.5049H88.5049H88.5049H88.5049H88.505H88.505H88.505H88.505H88.505H88.505H88.505H88.505H88.505H88.505H88.5051H88.5051H88.5051H88.5051H88.5051H88.5051H88.5051H88.5051H88.5051H88.5051H88.5051H88.5051H88.5052H88.5052H88.5052H88.5052H88.5052H88.5052H88.5052H88.5052H88.5052H88.5052H88.5052H88.5052H88.5053H88.5053H88.5053H88.5053H88.5053H88.5053H88.5053H88.5054H88.5054H88.5054H88.5054H88.5054H88.5054H88.5054H88.5054H88.5054H88.5054H88.5054H88.5055H88.5055H88.5055H88.5055H88.5055H88.5055H88.5055H88.5055H88.5055H88.5055C88.7518 29.5001 92.9368 29.4782 96.7703 28.2901C98.6899 27.6951 100.462 26.8252 101.619 25.5719C102.676 24.4266 103.246 22.9344 102.897 20.93C102.833 21.0373 102.767 21.1461 102.699 21.2562C102.56 21.4834 102.413 21.7179 102.258 21.9552M74.0881 21.0178L101.839 21.6826M74.0881 21.0178C74.0968 20.9606 74.1065 20.9028 74.1171 20.8436M74.0881 21.0178L74.1171 20.8436M102.258 21.9552C102.258 21.9555 102.258 21.9557 102.258 21.956L101.839 21.6826M102.258 21.9552C102.258 21.955 102.258 21.9549 102.259 21.9547L101.839 21.6826M102.258 21.9552C101.282 23.4596 100.024 25.1119 98.6581 26.15C97.9729 26.6706 97.2285 27.0616 96.4518 27.178C95.6573 27.297 94.8636 27.1224 94.1222 26.5734M101.839 21.6826C99.9031 24.6671 96.9593 28.0533 94.4188 26.1709M94.1222 26.5734C94.1222 26.5735 94.1223 26.5736 94.1224 26.5736L94.4188 26.1709M94.1222 26.5734C93.7899 26.3288 93.4749 26.0126 93.1769 25.6266M94.1222 26.5734C94.1218 26.5732 94.1215 26.5729 94.1211 26.5727L94.4188 26.1709M94.4188 26.1709L93.1769 25.6266M93.1769 25.6266C93.1768 25.6264 93.1766 25.6263 93.1765 25.6261L93.5723 25.3206L93.1773 25.6271C93.1771 25.6269 93.177 25.6268 93.1769 25.6266ZM102.742 20.2083C102.745 20.2235 102.749 20.2387 102.752 20.2552L102.752 20.2553L102.755 20.2679C102.767 20.3167 102.778 20.3618 102.789 20.4109C102.796 20.4403 102.803 20.471 102.811 20.5048C102.811 20.5044 102.811 20.5041 102.811 20.5037L102.742 20.2083ZM102.742 20.2083C102.772 20.1564 102.801 20.1051 102.83 20.0543L102.919 20.0332L102.919 20.0332L103.198 19.9674M102.742 20.2083L103.241 20.1481C103.232 20.1091 103.223 20.0706 103.214 20.032C103.208 20.0105 103.203 19.989 103.198 19.9674M74.1171 20.8436C74.1372 20.7339 74.1611 20.6209 74.1881 20.5042C74.2417 20.2735 74.2964 20.0435 74.3521 19.8122C74.3882 19.6642 74.4237 19.5183 74.4602 19.3736L74.4603 19.373C74.4945 19.2364 74.5284 19.1012 74.5631 18.9653L74.1171 20.8436ZM74.6612 18.5864C74.6282 18.711 74.596 18.8368 74.5632 18.965L74.6612 18.5864ZM74.6612 18.5864L74.662 18.5839C74.6639 18.5776 74.666 18.5698 74.6683 18.5606M74.6612 18.5864L74.6683 18.5606M74.6683 18.5606C74.696 18.4553 74.7239 18.3502 74.7523 18.2454C74.9371 18.325 75.122 18.4334 75.3055 18.5773L74.6683 18.5606ZM77.018 21.453C77.0059 21.4201 76.9939 21.385 76.9845 21.3575C76.9814 21.3483 76.9786 21.34 76.9761 21.3329L76.9745 21.3283L76.9746 21.3283C76.9048 21.1202 76.8316 20.9233 76.7566 20.7387L76.7563 20.7379C76.3114 19.6363 75.8037 18.9683 75.3057 18.5774L77.018 21.453ZM77.018 21.453C77.4447 22.6709 78.1989 24.0932 79.5769 24.6947C79.7149 24.7553 79.8579 24.8061 80.0035 24.8474L80.0038 24.8475C80.9001 25.1012 81.8282 24.9731 82.6641 24.6781C83.5016 24.3826 84.2807 23.9082 84.9065 23.4188M77.018 21.453L93.3502 25.039L92.961 25.3529C92.1823 24.3875 91.0002 23.2591 89.7146 22.5942C88.4321 21.9309 87.144 21.7703 86.0162 22.5322L86.0161 22.5323C85.8371 22.6531 85.664 22.7919 85.4805 22.945C85.4358 22.9823 85.3899 23.0209 85.343 23.0604C85.2036 23.1777 85.0558 23.3022 84.9065 23.4188M84.9065 23.4188C84.9064 23.4189 84.9064 23.4189 84.9063 23.419L84.5985 23.025L84.9065 23.4188ZM103.198 19.9674L102.919 20.033L102.919 20.033L102.83 20.0539L103.102 19.5696M103.198 19.9674C103.172 19.8566 103.145 19.7458 103.118 19.635C103.118 19.6345 103.118 19.634 103.118 19.6335C103.113 19.6128 103.108 19.592 103.103 19.5712L103.102 19.5696M103.102 19.5696C103.098 19.5768 103.094 19.584 103.09 19.5912C103.086 19.5984 103.082 19.6056 103.078 19.6129L103.102 19.5696ZM79.7775 24.2367C79.8933 24.2876 80.0148 24.3308 80.14 24.3664L79.7775 24.2367Z" fill="white" stroke="white" />
            <path opacity="0.15" d="M76.977 20.9876L76.9759 20.9869C76.757 20.8645 76.532 20.7891 76.3045 20.7491C75.5241 20.6137 74.7021 20.9046 74.0535 21.2565C73.803 23.212 74.4534 24.669 75.5904 25.7886C76.7957 26.9753 78.5662 27.7971 80.4542 28.3582C84.2255 29.479 88.2529 29.5 88.4932 29.5H88.4932H88.4933H88.4933H88.4934H88.4934H88.4935H88.4935H88.4936H88.4936H88.4937H88.4937H88.4938H88.4938H88.4939H88.4939H88.494H88.494H88.4941H88.4941H88.4942H88.4942H88.4943H88.4943H88.4944H88.4944H88.4945H88.4945H88.4946H88.4946H88.4946H88.4947H88.4947H88.4948H88.4948H88.4949H88.4949H88.495H88.495H88.4951H88.4951H88.4952H88.4952H88.4952H88.4953H88.4953H88.4954H88.4954H88.4955H88.4955H88.4956H88.4956H88.4957H88.4957H88.4957H88.4958H88.4958H88.4959H88.4959H88.496H88.496H88.496H88.4961H88.4961H88.4962H88.4962H88.4963H88.4963H88.4963H88.4964H88.4964H88.4965H88.4965H88.4966H88.4966H88.4966H88.4967H88.4967H88.4968H88.4968H88.4969H88.4969H88.4969H88.497H88.497H88.4971H88.4971H88.4971H88.4972H88.4972H88.4973H88.4973H88.4973H88.4974H88.4974H88.4975H88.4975H88.4975H88.4976H88.4976H88.4977H88.4977H88.4977H88.4978H88.4978H88.4979H88.4979H88.4979H88.498H88.498H88.4981H88.4981H88.4981H88.4982H88.4982H88.4982H88.4983H88.4983H88.4984H88.4984H88.4984H88.4985H88.4985H88.4985H88.4986H88.4986H88.4987H88.4987H88.4987H88.4988H88.4988H88.4988H88.4989H88.4989H88.4989H88.499H88.499H88.499H88.4991H88.4991H88.4992H88.4992H88.4992H88.4993H88.4993H88.4993H88.4994H88.4994H88.4994H88.4995H88.4995H88.4995H88.4996H88.4996H88.4996H88.4997H88.4997H88.4997H88.4998H88.4998H88.4998H88.4999H88.4999H88.4999H88.5H88.5H88.5H88.5001H88.5001H88.5001H88.5002H88.5002H88.5002H88.5003H88.5003H88.5003H88.5004H88.5004H88.5004H88.5005H88.5005H88.5005H88.5005H88.5006H88.5006H88.5006H88.5007H88.5007H88.5007H88.5008H88.5008H88.5008H88.5009H88.5009H88.5009H88.5009H88.501H88.501H88.501H88.5011H88.5011H88.5011H88.5011H88.5012H88.5012H88.5012H88.5013H88.5013H88.5013H88.5013H88.5014H88.5014H88.5014H88.5015H88.5015H88.5015H88.5015H88.5016H88.5016H88.5016H88.5017H88.5017H88.5017H88.5017H88.5018H88.5018H88.5018H88.5018H88.5019H88.5019H88.5019H88.5019H88.502H88.502H88.502H88.502H88.5021H88.5021H88.5021H88.5021H88.5022H88.5022H88.5022H88.5022H88.5023H88.5023H88.5023H88.5023H88.5024H88.5024H88.5024H88.5024H88.5025H88.5025H88.5025H88.5025H88.5026H88.5026H88.5026H88.5026H88.5027H88.5027H88.5027H88.5027H88.5028H88.5028H88.5028H88.5028H88.5028H88.5029H88.5029H88.5029H88.5029H88.503H88.503H88.503H88.503H88.503H88.5031H88.5031H88.5031H88.5031H88.5031H88.5032H88.5032H88.5032H88.5032H88.5033H88.5033H88.5033H88.5033H88.5033H88.5034H88.5034H88.5034H88.5034H88.5034H88.5035H88.5035H88.5035H88.5035H88.5035H88.5035H88.5036H88.5036H88.5036H88.5036H88.5036H88.5037H88.5037H88.5037H88.5037H88.5037H88.5038H88.5038H88.5038H88.5038H88.5038H88.5038H88.5039H88.5039H88.5039H88.5039H88.5039H88.5039H88.504H88.504H88.504H88.504H88.504H88.504H88.5041H88.5041H88.5041H88.5041H88.5041H88.5041H88.5042H88.5042H88.5042H88.5042H88.5042H88.5042H88.5043H88.5043H88.5043H88.5043H88.5043H88.5043H88.5043H88.5044H88.5044H88.5044H88.5044H88.5044H88.5044H88.5044H88.5045H88.5045H88.5045H88.5045H88.5045H88.5045H88.5045H88.5046H88.5046H88.5046H88.5046H88.5046H88.5046H88.5046H88.5046H88.5047H88.5047H88.5047H88.5047H88.5047H88.5047H88.5047H88.5047H88.5048H88.5048H88.5048H88.5048H88.5048H88.5048H88.5048H88.5048H88.5048H88.5049H88.5049H88.5049H88.5049H88.5049H88.5049H88.5049H88.5049H88.5049H88.505H88.505H88.505H88.505H88.505H88.505H88.505H88.505H88.505H88.505H88.5051H88.5051H88.5051H88.5051H88.5051H88.5051H88.5051H88.5051H88.5051H88.5051H88.5051H88.5051H88.5052H88.5052H88.5052H88.5052H88.5052H88.5052H88.5052H88.5052H88.5052H88.5052H88.5052H88.5052H88.5053H88.5053H88.5053H88.5053H88.5053H88.5053H88.5053H88.5054H88.5054H88.5054H88.5054H88.5054H88.5054H88.5054H88.5054H88.5054H88.5054H88.5054H88.5055H88.5055H88.5055H88.5055H88.5055H88.5055H88.5055H88.5055H88.5055H88.5055C88.7518 29.5 92.9368 29.4781 96.7703 28.2899C98.6899 27.695 100.462 26.825 101.619 25.5718C102.743 24.3542 103.316 22.7448 102.82 20.5447C102.68 20.6132 102.548 20.7207 102.434 20.8411C102.359 20.9198 102.3 20.995 102.261 21.0497C102.242 21.0768 102.227 21.0983 102.219 21.1117L102.215 21.1168L102.207 21.1342C102.194 21.1583 102.176 21.1929 102.152 21.2368C102.105 21.3246 102.035 21.4499 101.944 21.6042M76.977 20.9876L100.569 22.7231L100.962 23.0321C101.403 22.4709 101.733 21.9604 101.944 21.6042M76.977 20.9876C77.3206 21.1786 77.6723 21.4948 78.0017 22.0034L78.0019 22.0036C78.1897 22.2931 78.3704 22.6455 78.5374 23.0713C78.7446 23.6029 79.0268 24.1172 79.3934 24.5566C79.9807 25.2615 80.7917 25.7777 81.8327 25.836L81.8328 25.836C83.4141 25.9241 84.8146 25.0837 85.9224 24.3196L76.977 20.9876ZM101.944 21.6042L101.514 21.3491L101.944 21.604C101.944 21.604 101.944 21.6041 101.944 21.6042ZM103.198 19.9673L102.937 20.0287L102.936 20.0289L102.875 20.0434L102.872 20.044L102.711 20.0818C102.718 20.1108 102.724 20.135 102.729 20.1572C102.738 20.1913 102.745 20.2205 102.752 20.2551L102.752 20.2552L102.755 20.2678C102.767 20.3165 102.778 20.3617 102.789 20.4108C102.796 20.4402 102.803 20.4709 102.811 20.5047C102.811 20.5043 102.811 20.5039 102.811 20.5036L102.975 20.4655L103.003 20.4592L103.008 20.4579L103.018 20.4557L103.198 19.9673Z" fill="white" stroke="white" />
            <path opacity="0.15" d="M74.0881 21.0178L74.0874 21.0224C73.7524 23.0964 74.4085 24.6249 75.5904 25.7887C76.7957 26.9754 78.5662 27.7972 80.4542 28.3583C84.2255 29.4791 88.2529 29.5001 88.4932 29.5001H88.4932H88.4933H88.4933H88.4934H88.4934H88.4935H88.4935H88.4936H88.4936H88.4937H88.4937H88.4938H88.4938H88.4939H88.4939H88.494H88.494H88.4941H88.4941H88.4942H88.4942H88.4943H88.4943H88.4944H88.4944H88.4945H88.4945H88.4946H88.4946H88.4946H88.4947H88.4947H88.4948H88.4948H88.4949H88.4949H88.495H88.495H88.4951H88.4951H88.4952H88.4952H88.4952H88.4953H88.4953H88.4954H88.4954H88.4955H88.4955H88.4956H88.4956H88.4957H88.4957H88.4957H88.4958H88.4958H88.4959H88.4959H88.496H88.496H88.496H88.4961H88.4961H88.4962H88.4962H88.4963H88.4963H88.4963H88.4964H88.4964H88.4965H88.4965H88.4966H88.4966H88.4966H88.4967H88.4967H88.4968H88.4968H88.4969H88.4969H88.4969H88.497H88.497H88.4971H88.4971H88.4971H88.4972H88.4972H88.4973H88.4973H88.4973H88.4974H88.4974H88.4975H88.4975H88.4975H88.4976H88.4976H88.4977H88.4977H88.4977H88.4978H88.4978H88.4979H88.4979H88.4979H88.498H88.498H88.4981H88.4981H88.4981H88.4982H88.4982H88.4982H88.4983H88.4983H88.4984H88.4984H88.4984H88.4985H88.4985H88.4985H88.4986H88.4986H88.4987H88.4987H88.4987H88.4988H88.4988H88.4988H88.4989H88.4989H88.4989H88.499H88.499H88.499H88.4991H88.4991H88.4992H88.4992H88.4992H88.4993H88.4993H88.4993H88.4994H88.4994H88.4994H88.4995H88.4995H88.4995H88.4996H88.4996H88.4996H88.4997H88.4997H88.4997H88.4998H88.4998H88.4998H88.4999H88.4999H88.4999H88.5H88.5H88.5H88.5001H88.5001H88.5001H88.5002H88.5002H88.5002H88.5003H88.5003H88.5003H88.5004H88.5004H88.5004H88.5005H88.5005H88.5005H88.5005H88.5006H88.5006H88.5006H88.5007H88.5007H88.5007H88.5008H88.5008H88.5008H88.5009H88.5009H88.5009H88.5009H88.501H88.501H88.501H88.5011H88.5011H88.5011H88.5011H88.5012H88.5012H88.5012H88.5013H88.5013H88.5013H88.5013H88.5014H88.5014H88.5014H88.5015H88.5015H88.5015H88.5015H88.5016H88.5016H88.5016H88.5017H88.5017H88.5017H88.5017H88.5018H88.5018H88.5018H88.5018H88.5019H88.5019H88.5019H88.5019H88.502H88.502H88.502H88.502H88.5021H88.5021H88.5021H88.5021H88.5022H88.5022H88.5022H88.5022H88.5023H88.5023H88.5023H88.5023H88.5024H88.5024H88.5024H88.5024H88.5025H88.5025H88.5025H88.5025H88.5026H88.5026H88.5026H88.5026H88.5027H88.5027H88.5027H88.5027H88.5028H88.5028H88.5028H88.5028H88.5028H88.5029H88.5029H88.5029H88.5029H88.503H88.503H88.503H88.503H88.503H88.5031H88.5031H88.5031H88.5031H88.5031H88.5032H88.5032H88.5032H88.5032H88.5033H88.5033H88.5033H88.5033H88.5033H88.5034H88.5034H88.5034H88.5034H88.5034H88.5035H88.5035H88.5035H88.5035H88.5035H88.5035H88.5036H88.5036H88.5036H88.5036H88.5036H88.5037H88.5037H88.5037H88.5037H88.5037H88.5038H88.5038H88.5038H88.5038H88.5038H88.5038H88.5039H88.5039H88.5039H88.5039H88.5039H88.5039H88.504H88.504H88.504H88.504H88.504H88.504H88.5041H88.5041H88.5041H88.5041H88.5041H88.5041H88.5042H88.5042H88.5042H88.5042H88.5042H88.5042H88.5043H88.5043H88.5043H88.5043H88.5043H88.5043H88.5043H88.5044H88.5044H88.5044H88.5044H88.5044H88.5044H88.5044H88.5045H88.5045H88.5045H88.5045H88.5045H88.5045H88.5045H88.5046H88.5046H88.5046H88.5046H88.5046H88.5046H88.5046H88.5046H88.5047H88.5047H88.5047H88.5047H88.5047H88.5047H88.5047H88.5047H88.5048H88.5048H88.5048H88.5048H88.5048H88.5048H88.5048H88.5048H88.5048H88.5049H88.5049H88.5049H88.5049H88.5049H88.5049H88.5049H88.5049H88.5049H88.505H88.505H88.505H88.505H88.505H88.505H88.505H88.505H88.505H88.505H88.5051H88.5051H88.5051H88.5051H88.5051H88.5051H88.5051H88.5051H88.5051H88.5051H88.5051H88.5051H88.5052H88.5052H88.5052H88.5052H88.5052H88.5052H88.5052H88.5052H88.5052H88.5052H88.5052H88.5052H88.5053H88.5053H88.5053H88.5053H88.5053H88.5053H88.5053H88.5054H88.5054H88.5054H88.5054H88.5054H88.5054H88.5054H88.5054H88.5054H88.5054H88.5054H88.5055H88.5055H88.5055H88.5055H88.5055H88.5055H88.5055H88.5055H88.5055H88.5055C88.7518 29.5001 92.9368 29.4782 96.7703 28.29C98.6899 27.6951 100.462 26.8251 101.619 25.5719C102.652 24.453 103.22 23.0031 102.92 21.0681C102.898 21.1037 102.875 21.1397 102.852 21.1759L102.851 21.1772C102.676 21.4464 102.465 21.734 102.212 22.0162C101.842 22.4295 101.382 22.833 100.818 23.1569C99.4902 23.9194 97.6631 24.1941 95.241 23.2599C94.5502 22.9935 93.941 22.5432 93.3661 22.1054C93.3165 22.0677 93.2672 22.0299 93.2179 21.9923C92.6794 21.581 92.1529 21.1789 91.5457 20.8562C90.2728 20.1799 88.596 19.8287 85.8208 20.9144C85.537 21.0255 85.2532 21.1692 84.9537 21.3299C84.8704 21.3746 84.7847 21.4213 84.6974 21.4688C84.48 21.5873 84.2526 21.7111 84.0274 21.8234C83.389 22.1414 82.6619 22.4231 81.8328 22.3769C81.3116 22.348 80.8053 22.2862 80.341 22.1511L80.4807 21.6711M74.0881 21.0178L78.3477 20.3812C78.7372 21.3775 79.4616 21.8966 80.3417 22.1513L80.4807 21.6711M74.0881 21.0178C74.0968 20.9605 74.1065 20.9028 74.1171 20.8436M74.0881 21.0178L74.1171 20.8436M80.4807 21.6711C79.7206 21.451 79.136 21.0244 78.8133 20.199C78.1737 18.5645 76.9239 18.1119 75.6142 18.184L93.5177 21.5921C91.8158 20.2915 89.8603 18.7972 85.6386 20.4488C85.2342 20.607 84.8422 20.8206 84.4496 21.0344C83.6286 21.4817 82.8049 21.9303 81.8606 21.8776C81.3576 21.8498 80.8935 21.7912 80.4807 21.6711ZM74.1171 20.8436C74.1372 20.7339 74.1611 20.6209 74.1881 20.5042C74.2417 20.2735 74.2964 20.0435 74.3521 19.8122C74.3882 19.6642 74.4237 19.5183 74.4602 19.3736L74.4603 19.373C74.4945 19.2364 74.5284 19.1012 74.5631 18.9653L74.1171 20.8436ZM103.116 19.6259C103.111 19.6077 103.107 19.5894 103.103 19.5712L103.102 19.5696L103.102 19.5695C103.101 19.5647 103.1 19.56 103.098 19.5552C103.097 19.56 103.095 19.5655 103.093 19.5714C103.093 19.5716 103.093 19.5717 103.093 19.5719C103.089 19.5835 103.084 19.5971 103.078 19.6128M103.116 19.6259L102.906 20.0362C102.914 20.0187 102.921 20.0015 102.929 19.9847M103.116 19.6259L103.078 19.6128M103.116 19.6259L103.198 19.9674C103.171 19.8536 103.144 19.7399 103.116 19.6262L103.078 19.6128M103.078 19.6128C103.051 19.6916 103.002 19.8204 102.929 19.9847M102.929 19.9847L102.997 20.0147L102.929 19.9847ZM74.5933 18.8476C74.5833 18.8866 74.5732 18.9257 74.5632 18.965L74.5933 18.8476ZM74.5933 18.8476C74.9452 18.7609 75.2985 18.7018 75.6413 18.6832L75.6417 18.6832C76.2337 18.6506 76.7724 18.7391 77.2225 18.9888C77.6645 19.2339 78.0648 19.6584 78.3476 20.381L74.5933 18.8476Z" fill="white" stroke="white" />
        </g>
        <path d="M127.332 9.432V21H125.436V13.528C125.436 13.2293 125.452 12.9067 125.484 12.56L121.988 19.128C121.823 19.4427 121.569 19.6 121.228 19.6H120.924C120.583 19.6 120.329 19.4427 120.164 19.128L116.628 12.536C116.644 12.712 116.657 12.8853 116.668 13.056C116.679 13.2267 116.684 13.384 116.684 13.528V21H114.788V9.432H116.412C116.508 9.432 116.591 9.43467 116.66 9.44C116.729 9.44533 116.791 9.45867 116.844 9.48C116.903 9.50133 116.953 9.536 116.996 9.584C117.044 9.632 117.089 9.696 117.132 9.776L120.596 16.2C120.687 16.3707 120.769 16.5467 120.844 16.728C120.924 16.9093 121.001 17.096 121.076 17.288C121.151 17.0907 121.228 16.9013 121.308 16.72C121.388 16.5333 121.473 16.3547 121.564 16.184L124.98 9.776C125.023 9.696 125.068 9.632 125.116 9.584C125.164 9.536 125.215 9.50133 125.268 9.48C125.327 9.45867 125.391 9.44533 125.46 9.44C125.529 9.43467 125.612 9.432 125.708 9.432H127.332ZM136.823 12.664C137.431 12.664 137.983 12.7627 138.479 12.96C138.98 13.1573 139.407 13.4373 139.759 13.8C140.116 14.1627 140.391 14.6053 140.583 15.128C140.775 15.6507 140.871 16.2347 140.871 16.88C140.871 17.5307 140.775 18.1173 140.583 18.64C140.391 19.1627 140.116 19.608 139.759 19.976C139.407 20.344 138.98 20.6267 138.479 20.824C137.983 21.0213 137.431 21.12 136.823 21.12C136.21 21.12 135.652 21.0213 135.151 20.824C134.65 20.6267 134.22 20.344 133.863 19.976C133.511 19.608 133.236 19.1627 133.039 18.64C132.847 18.1173 132.751 17.5307 132.751 16.88C132.751 16.2347 132.847 15.6507 133.039 15.128C133.236 14.6053 133.511 14.1627 133.863 13.8C134.22 13.4373 134.65 13.1573 135.151 12.96C135.652 12.7627 136.21 12.664 136.823 12.664ZM136.823 19.6C137.506 19.6 138.01 19.3707 138.335 18.912C138.666 18.4533 138.831 17.7813 138.831 16.896C138.831 16.0107 138.666 15.336 138.335 14.872C138.01 14.408 137.506 14.176 136.823 14.176C136.13 14.176 135.615 14.4107 135.279 14.88C134.948 15.344 134.783 16.016 134.783 16.896C134.783 17.776 134.948 18.448 135.279 18.912C135.615 19.3707 136.13 19.6 136.823 19.6ZM149.851 12.664C150.459 12.664 151.011 12.7627 151.507 12.96C152.008 13.1573 152.435 13.4373 152.787 13.8C153.144 14.1627 153.419 14.6053 153.611 15.128C153.803 15.6507 153.899 16.2347 153.899 16.88C153.899 17.5307 153.803 18.1173 153.611 18.64C153.419 19.1627 153.144 19.608 152.787 19.976C152.435 20.344 152.008 20.6267 151.507 20.824C151.011 21.0213 150.459 21.12 149.851 21.12C149.237 21.12 148.68 21.0213 148.179 20.824C147.677 20.6267 147.248 20.344 146.891 19.976C146.539 19.608 146.264 19.1627 146.067 18.64C145.875 18.1173 145.779 17.5307 145.779 16.88C145.779 16.2347 145.875 15.6507 146.067 15.128C146.264 14.6053 146.539 14.1627 146.891 13.8C147.248 13.4373 147.677 13.1573 148.179 12.96C148.68 12.7627 149.237 12.664 149.851 12.664ZM149.851 19.6C150.533 19.6 151.037 19.3707 151.363 18.912C151.693 18.4533 151.859 17.7813 151.859 16.896C151.859 16.0107 151.693 15.336 151.363 14.872C151.037 14.408 150.533 14.176 149.851 14.176C149.157 14.176 148.643 14.4107 148.307 14.88C147.976 15.344 147.811 16.016 147.811 16.896C147.811 17.776 147.976 18.448 148.307 18.912C148.643 19.3707 149.157 19.6 149.851 19.6ZM161.094 13.8C161.259 13.6347 161.433 13.4827 161.614 13.344C161.801 13.2 161.995 13.08 162.198 12.984C162.406 12.8827 162.627 12.8053 162.862 12.752C163.097 12.6933 163.353 12.664 163.63 12.664C164.078 12.664 164.475 12.7413 164.822 12.896C165.169 13.0453 165.457 13.2587 165.686 13.536C165.921 13.808 166.097 14.136 166.214 14.52C166.337 14.8987 166.398 15.3173 166.398 15.776V21H164.422V15.776C164.422 15.2747 164.307 14.888 164.078 14.616C163.849 14.3387 163.499 14.2 163.03 14.2C162.689 14.2 162.369 14.2773 162.07 14.432C161.771 14.5867 161.489 14.7973 161.222 15.064V21H159.246V12.792H160.454C160.71 12.792 160.878 12.912 160.958 13.152L161.094 13.8Z" fill="white" />
        <path d="M7.948 11.536C7.884 11.648 7.81467 11.7307 7.74 11.784C7.67067 11.832 7.58267 11.856 7.476 11.856C7.364 11.856 7.24133 11.816 7.108 11.736C6.98 11.6507 6.82533 11.5573 6.644 11.456C6.46267 11.3547 6.24933 11.264 6.004 11.184C5.764 11.0987 5.47867 11.056 5.148 11.056C4.84933 11.056 4.588 11.0933 4.364 11.168C4.14 11.2373 3.95067 11.336 3.796 11.464C3.64667 11.592 3.53467 11.7467 3.46 11.928C3.38533 12.104 3.348 12.2987 3.348 12.512C3.348 12.784 3.42267 13.0107 3.572 13.192C3.72667 13.3733 3.92933 13.528 4.18 13.656C4.43067 13.784 4.716 13.8987 5.036 14C5.356 14.1013 5.684 14.2107 6.02 14.328C6.356 14.44 6.684 14.5733 7.004 14.728C7.324 14.8773 7.60933 15.0693 7.86 15.304C8.11067 15.5333 8.31067 15.816 8.46 16.152C8.61467 16.488 8.692 16.896 8.692 17.376C8.692 17.8987 8.60133 18.3893 8.42 18.848C8.244 19.3013 7.98267 19.6987 7.636 20.04C7.29467 20.376 6.876 20.6427 6.38 20.84C5.884 21.032 5.316 21.128 4.676 21.128C4.308 21.128 3.94533 21.0907 3.588 21.016C3.23067 20.9467 2.88667 20.8453 2.556 20.712C2.23067 20.5787 1.924 20.4187 1.636 20.232C1.348 20.0453 1.092 19.8373 0.868 19.608L1.5 18.576C1.55333 18.5013 1.62267 18.44 1.708 18.392C1.79333 18.3387 1.884 18.312 1.98 18.312C2.11333 18.312 2.25733 18.368 2.412 18.48C2.56667 18.5867 2.75067 18.7067 2.964 18.84C3.17733 18.9733 3.42533 19.096 3.708 19.208C3.996 19.3147 4.34 19.368 4.74 19.368C5.35333 19.368 5.828 19.224 6.164 18.936C6.5 18.6427 6.668 18.224 6.668 17.68C6.668 17.376 6.59067 17.128 6.436 16.936C6.28667 16.744 6.08667 16.584 5.836 16.456C5.58533 16.3227 5.3 16.2107 4.98 16.12C4.66 16.0293 4.33467 15.9307 4.004 15.824C3.67333 15.7173 3.348 15.5893 3.028 15.44C2.708 15.2907 2.42267 15.096 2.172 14.856C1.92133 14.616 1.71867 14.3173 1.564 13.96C1.41467 13.5973 1.34 13.152 1.34 12.624C1.34 12.2027 1.42267 11.792 1.588 11.392C1.75867 10.992 2.004 10.6373 2.324 10.328C2.644 10.0187 3.03867 9.77067 3.508 9.584C3.97733 9.39733 4.516 9.304 5.124 9.304C5.80667 9.304 6.436 9.41067 7.012 9.624C7.588 9.83733 8.07867 10.136 8.484 10.52L7.948 11.536ZM16.114 12.792V21H14.13V12.792H16.114ZM16.386 10.4C16.386 10.5707 16.3513 10.7307 16.282 10.88C16.2127 11.0293 16.1193 11.16 16.002 11.272C15.89 11.384 15.7567 11.4747 15.602 11.544C15.4473 11.608 15.282 11.64 15.106 11.64C14.9353 11.64 14.7727 11.608 14.618 11.544C14.4687 11.4747 14.338 11.384 14.226 11.272C14.114 11.16 14.0233 11.0293 13.954 10.88C13.89 10.7307 13.858 10.5707 13.858 10.4C13.858 10.224 13.89 10.0587 13.954 9.904C14.0233 9.74933 14.114 9.616 14.226 9.504C14.338 9.392 14.4687 9.304 14.618 9.24C14.7727 9.17067 14.9353 9.136 15.106 9.136C15.282 9.136 15.4473 9.17067 15.602 9.24C15.7567 9.304 15.89 9.392 16.002 9.504C16.1193 9.616 16.2127 9.74933 16.282 9.904C16.3513 10.0587 16.386 10.224 16.386 10.4ZM23.9685 9.112V21H21.9925V9.112H23.9685ZM35.0653 15.952C35.0653 15.696 35.0279 15.456 34.9533 15.232C34.8839 15.0027 34.7773 14.8027 34.6333 14.632C34.4893 14.4613 34.3053 14.328 34.0813 14.232C33.8626 14.1307 33.6066 14.08 33.3133 14.08C32.7426 14.08 32.2919 14.2427 31.9613 14.568C31.6359 14.8933 31.4279 15.3547 31.3373 15.952H35.0653ZM31.2973 17.144C31.3293 17.5653 31.4039 17.9307 31.5213 18.24C31.6386 18.544 31.7933 18.7973 31.9853 19C32.1773 19.1973 32.4039 19.3467 32.6653 19.448C32.9319 19.544 33.2253 19.592 33.5453 19.592C33.8653 19.592 34.1399 19.5547 34.3693 19.48C34.6039 19.4053 34.8066 19.3227 34.9773 19.232C35.1533 19.1413 35.3053 19.0587 35.4333 18.984C35.5666 18.9093 35.6946 18.872 35.8173 18.872C35.9826 18.872 36.1053 18.9333 36.1853 19.056L36.7533 19.776C36.5346 20.032 36.2893 20.248 36.0173 20.424C35.7453 20.5947 35.4599 20.7333 35.1613 20.84C34.8679 20.9413 34.5666 21.0133 34.2573 21.056C33.9533 21.0987 33.6573 21.12 33.3693 21.12C32.7986 21.12 32.2679 21.0267 31.7773 20.84C31.2866 20.648 30.8599 20.368 30.4973 20C30.1346 19.6267 29.8493 19.168 29.6413 18.624C29.4333 18.0747 29.3293 17.44 29.3293 16.72C29.3293 16.16 29.4199 15.6347 29.6013 15.144C29.7826 14.648 30.0413 14.2187 30.3773 13.856C30.7186 13.488 31.1319 13.1973 31.6173 12.984C32.1079 12.7707 32.6599 12.664 33.2733 12.664C33.7906 12.664 34.2679 12.7467 34.7053 12.912C35.1426 13.0773 35.5186 13.32 35.8333 13.64C36.1479 13.9547 36.3933 14.344 36.5693 14.808C36.7506 15.2667 36.8413 15.792 36.8413 16.384C36.8413 16.6827 36.8093 16.8853 36.7453 16.992C36.6813 17.0933 36.5586 17.144 36.3773 17.144H31.2973ZM44.0121 13.8C44.1775 13.6347 44.3508 13.4827 44.5321 13.344C44.7188 13.2 44.9135 13.08 45.1161 12.984C45.3241 12.8827 45.5455 12.8053 45.7801 12.752C46.0148 12.6933 46.2708 12.664 46.5481 12.664C46.9961 12.664 47.3935 12.7413 47.7401 12.896C48.0868 13.0453 48.3748 13.2587 48.6041 13.536C48.8388 13.808 49.0148 14.136 49.1321 14.52C49.2548 14.8987 49.3161 15.3173 49.3161 15.776V21H47.3401V15.776C47.3401 15.2747 47.2255 14.888 46.9961 14.616C46.7668 14.3387 46.4175 14.2 45.9481 14.2C45.6068 14.2 45.2868 14.2773 44.9881 14.432C44.6895 14.5867 44.4068 14.7973 44.1401 15.064V21H42.1641V12.792H43.3721C43.6281 12.792 43.7961 12.912 43.8761 13.152L44.0121 13.8ZM57.662 21.128C56.9473 21.128 56.398 20.928 56.014 20.528C55.6353 20.1227 55.446 19.5653 55.446 18.856V14.272H54.606C54.4993 14.272 54.4087 14.2373 54.334 14.168C54.2593 14.0987 54.222 13.9947 54.222 13.856V13.072L55.542 12.856L55.958 10.616C55.9847 10.5093 56.0353 10.4267 56.11 10.368C56.1847 10.3093 56.2807 10.28 56.398 10.28H57.422V12.864H59.614V14.272H57.422V18.72C57.422 18.976 57.4833 19.176 57.606 19.32C57.734 19.464 57.9073 19.536 58.126 19.536C58.2487 19.536 58.35 19.5227 58.43 19.496C58.5153 19.464 58.5873 19.432 58.646 19.4C58.71 19.368 58.766 19.3387 58.814 19.312C58.862 19.28 58.91 19.264 58.958 19.264C59.0167 19.264 59.0647 19.28 59.102 19.312C59.1393 19.3387 59.1793 19.3813 59.222 19.44L59.814 20.4C59.526 20.64 59.1953 20.8213 58.822 20.944C58.4487 21.0667 58.062 21.128 57.662 21.128Z" fill="white" />
    </g>

</svg>
    